inDegrees=yes
name=ik_lifting_orientations
DataType=double
version=3
OpenSimVersion=4.5-2024-01-10-34fd6af
endheader
time	pelvis_tilt	pelvis_list	pelvis_rotation	pelvis_tx	pelvis_ty	pelvis_tz	hip_flexion_r	hip_adduction_r	hip_rotation_r	knee_angle_r	knee_angle_r_beta	ankle_angle_r	subtalar_angle_r	mtp_angle_r	hip_flexion_l	hip_adduction_l	hip_rotation_l	knee_angle_l	knee_angle_l_beta	ankle_angle_l	subtalar_angle_l	mtp_angle_l	lumbar_extension	lumbar_bending	lumbar_rotation	arm_flex_r	arm_add_r	arm_rot_r	elbow_flex_r	pro_sup_r	wrist_flex_r	wrist_dev_r	arm_flex_l	arm_add_l	arm_rot_l	elbow_flex_l	pro_sup_l	wrist_flex_l	wrist_dev_l
1.28	-5.670302764211254	31.87598060915551	-77.4151703594072	0	0.9399999998679526	0	44.95850434071585	-10.8392827738322	0	60.26843230165765	1.05188257867923	-5.293893099264253	0	0	44.95850434071585	-10.8392827738322	0	60.26843230165765	1.05188257867923	-5.293893099264253	0	0	50.38629533812831	-3.472387807835983	-24.11085938539487	-13.84063001345241	-7.710437256559462	34.61904612964413	13.87110266805239	2.064204692766553	0	0	0	-10.00783186323773	0	87.98243699016479	2.064204692766553	0	0
1.29	-5.672411388160044	31.01764693405569	-77.55390318846638	0	0.9399999998679526	0	44.95852166590196	-10.83807108240643	0	60.26834362665495	1.051881031008469	-5.293341001283164	0	0	44.95852166590196	-10.83807108240643	0	60.26834362665495	1.051881031008469	-5.293341001283164	0	0	48.18724699298478	-3.177151042547505	-24.1079876235313	-11.71465789674754	-7.132542076067648	34.83422231039002	13.35741094055248	2.063602768663936	0	0	0	-10.00890781155574	0	87.98302525039833	2.063602768663936	0	0
1.3	-5.685805206007132	30.09458514114849	-77.70438678057199	0	0.9399999998679526	0	44.95909768414974	-10.81062818494647	0	60.26464296870009	1.051816442342667	-5.281935359582216	0	0	44.95909768414974	-10.81062818494647	0	60.26464296870009	1.051816442342667	-5.281935359582216	0	0	45.93150743762367	-2.828296662078555	-24.07538030259626	-9.459831313709513	-6.665309201967485	34.70124808488423	15.02056735382864	2.041599187316978	0	0	0	-10.0512494258373	0	88.0045295761669	2.041599187316978	0	0
1.31	-5.746183353513289	29.13200576408187	-77.83266029826103	0	0.9399999998679526	0	44.95963592085185	-10.78520499484299	0	60.26119542946648	1.051756271431948	-5.271397763029982	0	0	44.95963592085185	-10.78520499484299	0	60.26119542946648	1.051756271431948	-5.271397763029982	0	0	43.63081153384417	-2.467333298179787	-24.02385954187745	-7.106301260549942	-6.14361159672772	34.52424075562681	16.83916131003215	2.021008670987887	0	0	0	-10.09091011966583	0	88.02465290189124	2.021008670987887	0	0
1.32	-5.692126903938368	28.07467455733068	-78.06121531756652	0	0.9399999998679526	0	44.96011422831975	-10.76285637519123	0	60.25813618246891	1.051702877499209	-5.262165960691438	0	0	44.96011422831975	-10.76285637519123	0	60.25813618246891	1.051702877499209	-5.262165960691438	0	0	41.19385931274363	-2.13964885946138	-23.93060338161615	-4.546760179069158	-5.568709448736206	34.75940217383091	18.70885047552346	2.002675558664125	0	0	0	-10.12626867132007	0	88.04257004659561	2.002675558664125	0	0
1.33	-5.693206485703624	27.072049374946	-78.37874176067861	0	0.9399999998679526	0	44.96056198172884	-10.74215936837522	0	60.25527827020749	1.051652997520514	-5.253648364584947	0	0	44.96056198172884	-10.74215936837522	0	60.25527827020749	1.051652997520514	-5.253648364584947	0	0	38.80698552257122	-1.721974398538817	-23.74886356518759	-1.926935849023208	-4.935136993931504	35.12331289707272	20.70309850764049	1.985484614850527	0	0	0	-10.15946052210979	0	88.0593709406304	1.985484614850527	0	0
1.34	-5.626743319201169	26.00784366305041	-78.72641799886658	0	0.9399999998679526	0	44.96097698931874	-10.72334401078077	0	60.25262429113263	1.051606676847379	-5.24595411220642	0	0	44.96097698931874	-10.72334401078077	0	60.25262429113263	1.051606676847379	-5.24595411220642	0	0	36.33953457725674	-1.349365676012802	-23.44606733842701	0.8438637790140295	-4.929610972160412	35.62059793467641	23.49090425461846	1.969497436467536	0	0	0	-10.19039867770839	0	88.07499538682291	1.969497436467536	0	0
1.35	-4.953089794881278	24.97062683970423	-79.74304643188077	0	0.9399999998679526	0	44.96154371033511	-10.69836211306088	0	60.24898775273403	1.051543207278948	-5.235836098478146	0	0	44.96154371033511	-10.69836211306088	0	60.24898775273403	1.051543207278948	-5.235836098478146	0	0	33.89333803635939	-1.223529418904401	-22.52588519726143	3.199747579427133	-4.399379362909509	35.68217978492532	24.52949816305467	1.947565285084985	0	0	0	-10.23297225868724	0	88.09642993008472	1.947565285084985	0	0
1.36	-4.294012302052556	23.90524724003851	-80.71224799841143	0	0.9399999998679526	0	44.96191847053638	-10.681841894106	0	60.24659701339845	1.051501481005985	-5.22914499514765	0	0	44.96191847053638	-10.681841894106	0	60.24659701339845	1.051501481005985	-5.22914499514765	0	0	31.51341363903898	-1.199684680489194	-21.71537891626918	5.98320687182423	-5.099157525147945	36.2560786392166	28.48094186082267	1.93306298774208	0	0	0	-10.26112072654442	0	88.11060319153525	1.93306298774208	0	0
1.37	-3.73975217781312	22.96871573088955	-81.82138432162709	0	0.9399999998679526	0	44.96229540288677	-10.66541530864934	0	60.2441953784496	1.051459564568697	-5.222519084879913	0	0	44.96229540288677	-10.66541530864934	0	60.2441953784496	1.051459564568697	-5.222519084879913	0	0	29.26666238465263	-1.039426246950704	-20.75632724851353	8.839263636356094	-5.901072188985085	36.71915304779237	32.53861203856941	1.918451129676726	0	0	0	-10.28951380906621	0	88.12488353016215	1.918451129676726	0	0
